<?xml version="1.0" encoding="utf-8"?>
<!-- Generator: Adobe Illustrator 26.3.1, SVG Export Plug-In . SVG Version: 6.00 Build 0)  -->
<svg version="1.1" id="Capa_1" xmlns="http://www.w3.org/2000/svg" xmlns:xlink="http://www.w3.org/1999/xlink" x="0px" y="0px"
	 viewBox="0 0 600 600" style="enable-background:new 0 0 600 600;" xml:space="preserve">
<style type="text/css">
	.st0{fill:#181C2F;}
	.st1{fill:#DBDDE4;}
	.st2{fill:#96A1B4;}
	.st3{fill:#FFFFFF;}
	.st4{fill:#4B8375;}
	.st5{clip-path:url(#XMLID_00000057124489862354085530000002090542539829785504_);fill:#F2EDD6;}
	.st6{fill:#C9CDD8;}
	.st7{fill:#E8E9EC;}
	.st8{fill:#DD8B79;}
	.st9{fill:#EBEBED;}
	.st10{opacity:0.45;clip-path:url(#XMLID_00000045587349459569966390000007714046247005072817_);fill:#FFFFFF;}
	.st11{opacity:0.45;clip-path:url(#XMLID_00000160171118059540466000000000762108982158596248_);fill:#FFFFFF;}
	.st12{opacity:0.45;clip-path:url(#XMLID_00000076569055500651485060000005376265583654929809_);fill:#FFFFFF;}
	.st13{clip-path:url(#XMLID_00000082340147833099570260000004143854292696282253_);fill:#E8E9EC;}
	.st14{clip-path:url(#XMLID_00000181806902058452112170000009163019991561516472_);fill:#C9CDD8;}
	.st15{clip-path:url(#XMLID_00000115516889720583512920000007661206500019904913_);fill:#E8E9EC;}
	.st16{clip-path:url(#XMLID_00000115516889720583512920000007661206500019904913_);}
	.st17{clip-path:url(#XMLID_00000046333068114468693340000017936076982867479451_);fill:#FFFFFF;}
	.st18{clip-path:url(#XMLID_00000046333068114468693340000017936076982867479451_);fill:#C9CDD8;}
	.st19{clip-path:url(#XMLID_00000144303007252939637150000013411169610276823975_);fill:#C9CDD8;}
	.st20{clip-path:url(#XMLID_00000137112361588770856620000004355651738463310980_);fill:#366054;}
	.st21{fill:#366054;}
</style>
<g>
	<g>
		<g>
			<g>
				<path class="st0" d="M267.93,498.3H146.5c-7.89,0-14.28-6.39-14.28-14.28V239.73c0-7.89,6.39-14.28,14.28-14.28h121.44
					c7.89,0,14.28,6.39,14.28,14.28v244.29C282.22,491.91,275.82,498.3,267.93,498.3z"/>
				<rect x="139.49" y="246.31" class="st1" width="135.46" height="231.13"/>
				<g>
					<rect x="143.06" y="249.5" class="st2" width="15.22" height="2.78"/>
					<rect x="143.06" y="254.14" class="st2" width="15.22" height="2.78"/>
					<rect x="143.06" y="258.78" class="st2" width="15.22" height="2.78"/>
				</g>
			</g>
			<path class="st3" d="M219.27,236.73h-24.1c-1.07,0-1.94-0.87-1.94-1.94l0,0c0-1.07,0.87-1.94,1.94-1.94h24.1
				c1.07,0,1.94,0.87,1.94,1.94l0,0C221.21,235.86,220.34,236.73,219.27,236.73z"/>
		</g>
		<path class="st4" d="M208.13,391.28h12.69c3.86-2.98,6.88-7.27,8.32-11.92c-4.27,0.39-8.41,2.18-11.59,5.05
			c1.53-2.36,2.31-5.11,2.54-7.91c0.22-2.8-0.01-5.62-0.25-8.42c-4.81,2.52-8.66,7.12-10.29,12.3c-0.32-2.78-1.06-5.56-2.18-8.13
			c-0.72,3.18-1.43,6.39-1.46,9.65C205.88,385.15,206.21,388.64,208.13,391.28z"/>
		<rect x="139.49" y="391.35" class="st3" width="135.46" height="86.09"/>
		<rect x="200.63" y="351.57" class="st0" width="7.6" height="39.78"/>
		<g>
			<g>
				<defs>
					<path id="XMLID_69_" d="M232.32,351.57h-53.87c-1.68,0-3.05-1.37-3.05-3.05v-21.1c0-8.27,6.71-14.98,14.98-14.98h41.94V351.57z
						"/>
				</defs>
				<use xlink:href="#XMLID_69_"  style="overflow:visible;fill:#4B8375;"/>
				<clipPath id="XMLID_00000060734726968395989810000017192085205947777947_">
					<use xlink:href="#XMLID_69_"  style="overflow:visible;"/>
				</clipPath>
				
					<rect x="170.28" y="324.99" style="clip-path:url(#XMLID_00000060734726968395989810000017192085205947777947_);fill:#F2EDD6;" width="56.32" height="7.01"/>
			</g>
			<path class="st0" d="M242.89,351.57h-22.91v-27.33c0-6.52,5.28-11.8,11.8-11.8h1.07c6.52,0,11.8,5.28,11.8,11.8v25.57
				C244.65,350.78,243.87,351.57,242.89,351.57z"/>
		</g>
		<g>
			<path class="st6" d="M151.63,405.94l3.47-0.08l3.47-0.06l6.95-0.12c4.63-0.06,9.26-0.12,13.9-0.15c4.63-0.05,9.26-0.06,13.9-0.09
				l13.9-0.03l13.9,0.03c4.63,0.03,9.26,0.04,13.9,0.09c4.63,0.04,9.26,0.09,13.9,0.15l6.95,0.12l3.47,0.06l3.47,0.08l-3.47,0.08
				l-3.47,0.06l-6.95,0.12c-4.63,0.06-9.26,0.12-13.9,0.15c-4.63,0.05-9.26,0.06-13.9,0.09l-13.9,0.03l-13.9-0.03
				c-4.63-0.03-9.26-0.04-13.9-0.09c-4.63-0.04-9.26-0.09-13.9-0.15l-6.95-0.12l-3.47-0.06L151.63,405.94z"/>
			<path class="st6" d="M151.63,420.22l3.47-0.08l3.47-0.06l6.95-0.12c4.63-0.06,9.26-0.12,13.9-0.15c4.63-0.05,9.26-0.06,13.9-0.09
				l13.9-0.03l13.9,0.03c4.63,0.03,9.26,0.04,13.9,0.09c4.63,0.04,9.26,0.09,13.9,0.15l6.95,0.12l3.47,0.06l3.47,0.08l-3.47,0.08
				l-3.47,0.06l-6.95,0.12c-4.63,0.06-9.26,0.12-13.9,0.15c-4.63,0.05-9.26,0.06-13.9,0.09l-13.9,0.03l-13.9-0.03
				c-4.63-0.03-9.26-0.04-13.9-0.09c-4.63-0.04-9.26-0.09-13.9-0.15l-6.95-0.12l-3.47-0.06L151.63,420.22z"/>
			<path class="st6" d="M151.63,434.49l3.47-0.08l3.47-0.06l6.95-0.12c4.63-0.06,9.26-0.12,13.9-0.15c4.63-0.05,9.26-0.06,13.9-0.09
				l13.9-0.03l13.9,0.03c4.63,0.03,9.26,0.04,13.9,0.09c4.63,0.04,9.26,0.09,13.9,0.15l6.95,0.12l3.47,0.06l3.47,0.08l-3.47,0.08
				l-3.47,0.06l-6.95,0.12c-4.63,0.06-9.26,0.12-13.9,0.15c-4.63,0.05-9.26,0.06-13.9,0.09l-13.9,0.03l-13.9-0.03
				c-4.63-0.03-9.26-0.04-13.9-0.09c-4.63-0.04-9.26-0.09-13.9-0.15l-6.95-0.12l-3.47-0.06L151.63,434.49z"/>
			<path class="st6" d="M151.63,448.76l3.47-0.08l3.47-0.06l6.95-0.12c4.63-0.06,9.26-0.12,13.9-0.15c4.63-0.05,9.26-0.06,13.9-0.09
				l13.9-0.03l13.9,0.03c4.63,0.03,9.26,0.04,13.9,0.09c4.63,0.04,9.26,0.09,13.9,0.15l6.95,0.12l3.47,0.06l3.47,0.08l-3.47,0.08
				l-3.47,0.06l-6.95,0.12c-4.63,0.06-9.26,0.12-13.9,0.15c-4.63,0.05-9.26,0.06-13.9,0.09l-13.9,0.03l-13.9-0.03
				c-4.63-0.03-9.26-0.04-13.9-0.09c-4.63-0.04-9.26-0.09-13.9-0.15l-6.95-0.12l-3.47-0.06L151.63,448.76z"/>
			<path class="st6" d="M151.63,463.03l3.47-0.08l3.47-0.06l6.95-0.12c4.63-0.06,9.26-0.12,13.9-0.15c4.63-0.05,9.26-0.06,13.9-0.09
				l13.9-0.03l13.9,0.03c4.63,0.03,9.26,0.04,13.9,0.09c4.63,0.04,9.26,0.09,13.9,0.15l6.95,0.12l3.47,0.06l3.47,0.08l-3.47,0.08
				l-3.47,0.06l-6.95,0.12c-4.63,0.06-9.26,0.12-13.9,0.15c-4.63,0.05-9.26,0.06-13.9,0.09l-13.9,0.03l-13.9-0.03
				c-4.63-0.03-9.26-0.04-13.9-0.09c-4.63-0.04-9.26-0.09-13.9-0.15l-6.95-0.12l-3.47-0.06L151.63,463.03z"/>
		</g>
		<path class="st4" d="M206.02,391.28h-19.58c-6.71-1.67-12.86-6.88-15.2-13.38c6.31-0.55,12.75,1.47,17.64,5.49
			c-7.78-5.2-12.59-14.57-12.36-23.92c5.26,0.82,10.02,4.1,13.45,8.18c3.42,4.08,5.78,8.93,7.96,13.79
			c-0.17-4.31,0.53-8.61,2.6-12.4C204.91,375.29,207.32,383.75,206.02,391.28z"/>
	</g>
	<g>
		<polygon class="st6" points="387.72,498.39 383.25,498.39 392.48,420.91 396.95,420.91 		"/>
		<polygon class="st6" points="521.41,498.39 525.88,498.39 516.64,420.91 512.18,420.91 		"/>
		<g>
			<rect x="384.28" y="394.64" class="st7" width="142.17" height="26.27"/>
			<g>
				<path class="st6" d="M454.04,416.99h-65.46v-18.42h65.46V416.99z M389.16,416.41h64.31v-17.27h-64.31V416.41z"/>
				
					<ellipse transform="matrix(0.2298 -0.9732 0.9732 0.2298 -72.3534 724.1342)" class="st6" cx="421.32" cy="407.78" rx="3.25" ry="3.25"/>
			</g>
			<g>
				<path class="st6" d="M522.83,416.99h-65.46v-18.42h65.46V416.99z M457.95,416.41h64.31v-17.27h-64.31V416.41z"/>
				<circle class="st6" cx="490.1" cy="407.78" r="3.25"/>
			</g>
		</g>
	</g>
	<g>
		<g>
			<path class="st0" d="M418.44,294.89c0,0-6.36,0-7.27,7.05c-0.76,5.88,3.01,8.92,3.01,8.92l6.05-12.15L418.44,294.89z"/>
			<path class="st8" d="M439.72,323.11l-5.7-19.14l-0.08,0.02c-1.03-5.2-5.91-8.81-11.27-8.16h0c-4.79,0.58-7.99,3.72-8.76,8.69
				c-0.2,1.27-0.19,2.57-0.04,3.84l0.3,2.49c0.68,5.61,5.78,9.61,11.39,8.93l0,0c0.45-0.05,0.89-0.14,1.31-0.25l2.58,10.98
				L439.72,323.11z"/>
			<path class="st0" d="M426.87,319.54c0,0,3.53-1.01,4.85-2.72c0,0-0.14,2.95-4.26,4.77L426.87,319.54z"/>
			<g>
				<path class="st0" d="M419.06,303.11c0.1,0.4,0.15,0.79,0.2,1.19c0.03,0.2,0.04,0.39,0.06,0.59c0.02,0.2,0.04,0.39,0.04,0.59
					l0.03,0.59c0.01,0.2,0,0.39,0,0.59l0,0.59l-0.02,0.59l-0.02,0.66l-0.69-0.04c-0.25-0.01-0.5-0.02-0.75-0.04l-0.19-0.01l-0.05,0
					l-0.03,0l-0.04,0c-0.06,0-0.12,0.01-0.18,0.02c-0.11,0.03-0.22,0.1-0.32,0.18c-0.09,0.09-0.15,0.21-0.19,0.35
					c-0.04,0.14-0.03,0.29,0.02,0.44c0.03,0.07,0.06,0.15,0.11,0.22c0.05,0.07,0.11,0.13,0.18,0.19c0.07,0.05,0.15,0.11,0.24,0.15
					c0.08,0.04,0.22,0.07,0.34,0.1c0.24,0.07,0.49,0.15,0.73,0.24l0.01,0c0.02,0.01,0.03,0.03,0.02,0.05
					c-0.01,0.02-0.02,0.02-0.04,0.02l-0.75-0.04c-0.12-0.01-0.25-0.01-0.38-0.03c-0.13-0.02-0.25-0.06-0.37-0.12
					c-0.47-0.23-0.78-0.75-0.74-1.28c0.03-0.53,0.4-1.01,0.9-1.18c0.12-0.04,0.26-0.07,0.39-0.07c0.13,0,0.26,0.01,0.38,0.02
					l0.75,0.05l-0.08,0.07l0.17-2.34c0.05-0.78,0.12-1.56,0.18-2.34c0-0.02,0.02-0.04,0.04-0.03c0.02,0,0.03,0.01,0.03,0.03
					L419.06,303.11z"/>
				<path class="st0" d="M423.4,303.06c-0.02,0.27-0.65,0.45-1.41,0.4s-1.37-0.31-1.35-0.58c0.02-0.27,0.65-0.45,1.41-0.4
					S423.42,302.79,423.4,303.06z"/>
				<path class="st0" d="M417.86,302.98c0.08,0.26-0.46,0.65-1.19,0.86c-0.73,0.22-1.39,0.18-1.47-0.08
					c-0.08-0.26,0.46-0.65,1.19-0.86C417.13,302.68,417.79,302.72,417.86,302.98z"/>
				<path class="st0" d="M422.81,305.07c0.05,0.43-0.26,0.83-0.69,0.88c-0.43,0.05-0.83-0.26-0.88-0.69
					c-0.05-0.43,0.26-0.83,0.69-0.88C422.36,304.33,422.75,304.64,422.81,305.07z"/>
				<path class="st0" d="M417.39,305.76c0.06,0.47-0.28,0.9-0.75,0.95s-0.9-0.28-0.95-0.75c-0.06-0.47,0.28-0.9,0.75-0.95
					S417.33,305.29,417.39,305.76z"/>
				<path class="st3" d="M417.96,312.64c0,0,2.67-0.89,4.07-2.76C422.02,309.89,420.66,314.27,417.96,312.64z"/>
			</g>
			<path class="st0" d="M437.26,295.76c-0.34-0.59-0.79-1.11-1.33-1.57c0.48-0.97,0.74-2.07,0.74-3.23c0-4.07-3.3-7.38-7.38-7.38
				c-4.07,0-7.38,3.3-7.38,7.38c0,0.41,0.04,0.82,0.1,1.21c-3.36,0.89-5.92,2.74-5.96,5.42c0,0-0.34,3.71,5.46,3.95
				c0,0-1.76-0.77-2.44-2.08c0.24,0.37,1.53,1.66,8.27,3.23l4.92,1.23l1.26-0.79l2.65,8.11
				C436.18,311.24,440.98,302.23,437.26,295.76z"/>
			<g>
				<path class="st8" d="M435.73,304.76c0.17,1.38-0.6,2.61-1.72,2.75c-1.12,0.14-2.16-0.88-2.33-2.26
					c-0.17-1.38,0.6-2.61,1.72-2.75C434.52,302.37,435.56,303.38,435.73,304.76z"/>
				<path class="st0" d="M432.42,304.44c-0.01-0.25,0.08-0.51,0.24-0.73c0.17-0.22,0.45-0.39,0.76-0.43
					c0.08-0.01,0.16-0.01,0.24-0.02c0.08,0.01,0.16,0.02,0.23,0.04c0.15,0.04,0.3,0.1,0.43,0.18c0.26,0.16,0.46,0.4,0.6,0.65
					c0.07,0.13,0.11,0.27,0.15,0.4c0.02,0.07,0.03,0.14,0.04,0.21c0.01,0.08,0.02,0.13,0.02,0.23c0,0.09-0.01,0.2-0.07,0.35
					c-0.06,0.14-0.21,0.29-0.34,0.33c-0.27,0.09-0.42,0.03-0.55,0c-0.51-0.15-0.83-0.43-1.27-0.58l-0.01,0
					c-0.01,0-0.02-0.02-0.01-0.03c0-0.01,0.01-0.02,0.02-0.02c0.47-0.04,0.9,0.16,1.34,0.23c0.11,0.01,0.22,0.02,0.31-0.01
					c0.09-0.04,0.12-0.13,0.11-0.24c-0.02-0.22-0.08-0.43-0.19-0.62c-0.19-0.39-0.59-0.7-1.03-0.68c-0.44,0.01-0.82,0.35-0.97,0.77
					c0,0.01-0.02,0.02-0.03,0.01c-0.01,0-0.02-0.01-0.02-0.02L432.42,304.44z"/>
			</g>
			<path class="st4" d="M422.02,292.17c0.1,0.28,7.53-2.76,13.91,2.02c0,0,0.45-0.84,0.58-1.67c0,0-5.26-4.69-14.59-2.03
				C421.92,290.48,421.74,291.36,422.02,292.17z"/>
		</g>
		<g>
			<polygon class="st8" points="441.73,435.21 490.3,443.34 494.47,432.37 450.37,417.8 			"/>
		</g>
		<path class="st8" d="M437.7,435.97c-0.02,0.96,0,1.92,0.04,2.88l1.21,46.03h-10.93l-9.54-47.84c-0.13-0.66-0.25-1.31-0.35-1.97
			L437.7,435.97z"/>
		<path class="st4" d="M454.01,398.82c0,0,2.65-12.99,0-22.79c-0.04-0.24-0.07-0.49-0.11-0.73c-1.34-8.83-2.79-17.64-4.02-26.49
			c-0.36-2.59-0.57-5.2-0.97-7.79c-0.03-0.18-0.06-0.37-0.09-0.57c-0.32-1.98-0.75-3.95-1.29-5.88c-0.03-0.1-0.06-0.2-0.08-0.3
			c-1.43-5.09-3.85-12.48-9.85-13.61c-7.02-1.32-12.31,6.36-14.73,11.77c-2.81,6.29-3.56,13.28-4.3,20.05
			c-0.99,9.01-1.69,18.05-2.19,27.1l-4.02,62.99c0,0,45.29,1.59,57.12-21.08L454.01,398.82z"/>
		<g>
			<path class="st4" d="M410.81,254.85l0-0.02l-157.65-29.21l0,0c-3.25-0.69-6.79,1.32-7.47,4.99l-17.33,93.54
				c-0.16,0.84-0.14,1.67,0.03,2.45l0.12,0.48c0.65,2.18,2.47,3.93,4.86,4.37l158.25,29.32c2.39,0.44,4.71-0.54,6.1-2.34l0.29-0.4
				c0.44-0.67,0.76-1.44,0.91-2.28l17.33-93.54C416.96,258.45,414.21,255.24,410.81,254.85z"/>
			<path class="st0" d="M333.56,297.5c5.74,4.58,11.33,9.34,16.88,14.13c5.54,4.8,11.03,9.67,16.46,14.6
				c5.44,4.92,10.82,9.9,16.15,14.95c5.32,5.05,10.6,10.15,15.72,15.41c-5.74-4.58-11.33-9.34-16.89-14.13
				c-5.54-4.8-11.03-9.67-16.46-14.6c-5.43-4.93-10.82-9.91-16.14-14.95C343.97,307.86,338.69,302.77,333.56,297.5z"/>
			<path class="st0" d="M228.2,324.99c6.67-3.08,13.43-5.94,20.2-8.76c6.78-2.8,13.59-5.52,20.43-8.17
				c6.84-2.65,13.7-5.23,20.6-7.73c6.9-2.49,13.82-4.92,20.83-7.14c-6.67,3.08-13.43,5.95-20.2,8.76
				c-6.78,2.8-13.59,5.52-20.43,8.17c-6.84,2.65-13.7,5.23-20.6,7.73C242.13,320.33,235.21,322.77,228.2,324.99z"/>
			<path class="st0" d="M416.22,262.12c-8.14,3.03-16.22,6.2-24.3,9.37l-12.09,4.83c-2.02,0.8-4.03,1.62-6.04,2.44l-6.03,2.45
				l-6.03,2.45l-6.01,2.49l-12.02,4.99c-2.01,0.83-4,1.67-6,2.52l-6,2.53l-2.28,0.97c-5.15,2.18-11.11,1.07-15.14-2.81l-1.79-1.72
				l-4.69-4.51c-1.57-1.5-3.12-3.02-4.7-4.5l-9.44-8.96l-4.72-4.48l-4.75-4.45l-4.75-4.45c-1.58-1.48-3.16-2.97-4.76-4.44L265.1,248
				c-6.41-5.85-12.82-11.72-19.34-17.46l-0.15,0.16l67.91,65.94c4.18,4.06,10.4,5.21,15.76,2.92l87.02-37.23L416.22,262.12z"/>
		</g>
		<path class="st8" d="M407.83,330.03l-0.83-1.67c-0.67-1.35-2.28-1.94-3.66-1.35l-4.11,1.92c-0.79,0.37-1.2,1.24-1,2.08
			c0.23,0.93,1.14,1.53,2.08,1.36l3.02-0.53l-0.64,3.51l7.71,20.42l10.79-4.27L407.83,330.03z"/>
		<path class="st0" d="M402.63,331.98c0.17-0.12,0.34-0.2,0.52-0.27c0.18-0.06,0.36-0.11,0.54-0.14c0.18-0.03,0.37-0.05,0.56-0.05
			c0.19,0,0.38,0.02,0.58,0.07c-0.17,0.12-0.34,0.2-0.52,0.27c-0.18,0.06-0.36,0.11-0.54,0.14c-0.18,0.03-0.37,0.05-0.56,0.05
			C403.02,332.05,402.82,332.04,402.63,331.98z"/>
		<g>
			<path class="st0" d="M439.56,488.85L439.56,488.85l-0.61-3.98h-10.93v1.9l-14.17,6.08c-2.12,0.91-3.48,3.01-3.45,5.31l30.8,0.11
				L439.56,488.85z"/>
			<path class="st9" d="M441.21,496.24c-2.54,0.13-5.08,0.2-7.61,0.24c-1.27,0.03-2.54,0.03-3.81,0.04l-3.81,0.01l-3.81-0.03
				c-1.27-0.02-2.54-0.03-3.81-0.07c-2.54-0.06-5.07-0.14-7.61-0.29c2.54-0.13,5.08-0.2,7.61-0.24c1.27-0.03,2.54-0.03,3.81-0.04
				l3.81,0l3.81,0.03c1.27,0.02,2.54,0.03,3.81,0.07C436.13,496,438.67,496.09,441.21,496.24z"/>
			<circle class="st9" cx="434.73" cy="491.65" r="2.8"/>
			<g>
				<path class="st9" d="M415.76,491.76c0.36-0.15,0.71-0.15,1.05-0.09c0.33,0.06,0.65,0.19,0.93,0.37
					c0.28,0.19,0.53,0.44,0.71,0.74c0.18,0.3,0.29,0.66,0.24,1.05l-0.06,0.03c-0.09-0.12-0.16-0.25-0.27-0.36
					c-0.05-0.06-0.09-0.12-0.14-0.17l-0.16-0.16c-0.22-0.21-0.45-0.4-0.7-0.56c-0.25-0.17-0.51-0.32-0.78-0.45
					c-0.14-0.06-0.27-0.12-0.41-0.18c-0.14-0.06-0.28-0.11-0.42-0.16L415.76,491.76z"/>
				<path class="st9" d="M419.39,490.23c0.36-0.15,0.71-0.15,1.05-0.09c0.33,0.06,0.65,0.19,0.93,0.37
					c0.28,0.19,0.53,0.44,0.71,0.74c0.18,0.3,0.29,0.66,0.24,1.05l-0.06,0.03c-0.09-0.12-0.16-0.25-0.27-0.36
					c-0.05-0.06-0.09-0.12-0.14-0.17l-0.16-0.16c-0.22-0.21-0.45-0.4-0.7-0.56c-0.25-0.17-0.51-0.32-0.78-0.45
					c-0.14-0.06-0.27-0.12-0.41-0.18c-0.14-0.06-0.28-0.11-0.42-0.16L419.39,490.23z"/>
				<path class="st9" d="M422.74,488.85c0.36-0.15,0.71-0.15,1.05-0.09c0.33,0.06,0.65,0.19,0.93,0.37
					c0.28,0.19,0.53,0.44,0.71,0.74c0.18,0.3,0.29,0.66,0.24,1.05l-0.06,0.03c-0.09-0.12-0.16-0.25-0.27-0.36
					c-0.05-0.06-0.09-0.12-0.14-0.17l-0.16-0.16c-0.22-0.21-0.45-0.4-0.7-0.56c-0.25-0.17-0.51-0.32-0.78-0.45
					c-0.14-0.06-0.27-0.12-0.41-0.18c-0.14-0.06-0.28-0.11-0.42-0.16L422.74,488.85z"/>
			</g>
		</g>
		<g>
			<path class="st0" d="M496.13,432.84L496.13,432.84l-2.72-0.79l-3.28,11.26l1.83,0.53l1.88,15.31c0.28,2.29,1.91,4.18,4.14,4.8
				l8.71-29.55L496.13,432.84z"/>
			<path class="st9" d="M504.73,433.82c-0.58,2.47-1.23,4.93-1.9,7.38c-0.33,1.23-0.68,2.44-1.02,3.67l-1.06,3.66l-1.09,3.65
				c-0.38,1.21-0.74,2.43-1.13,3.63c-0.77,2.42-1.55,4.83-2.41,7.23c0.58-2.47,1.23-4.93,1.9-7.38c0.33-1.23,0.68-2.44,1.02-3.67
				l1.06-3.66l1.09-3.65c0.38-1.21,0.74-2.43,1.13-3.63C503.09,438.63,503.88,436.22,504.73,433.82z"/>
			<circle class="st9" cx="498.52" cy="438.77" r="2.8"/>
			<g>
				<path class="st9" d="M493.33,457c-0.04-0.39,0.06-0.73,0.2-1.03c0.15-0.3,0.36-0.57,0.62-0.79c0.26-0.22,0.57-0.38,0.91-0.48
					c0.34-0.09,0.72-0.09,1.07,0.06l0.02,0.07c-0.14,0.05-0.29,0.09-0.42,0.15c-0.07,0.03-0.14,0.05-0.2,0.09l-0.2,0.1
					c-0.26,0.15-0.5,0.32-0.73,0.52c-0.23,0.19-0.45,0.4-0.65,0.62c-0.1,0.11-0.2,0.23-0.29,0.35c-0.1,0.12-0.19,0.24-0.27,0.36
					L493.33,457z"/>
				<path class="st9" d="M492.88,453.1c-0.04-0.39,0.06-0.73,0.2-1.03c0.15-0.3,0.36-0.57,0.62-0.79c0.26-0.22,0.57-0.38,0.91-0.48
					c0.34-0.09,0.72-0.09,1.07,0.06l0.02,0.07c-0.14,0.05-0.29,0.09-0.42,0.15c-0.07,0.03-0.14,0.05-0.2,0.09l-0.2,0.1
					c-0.26,0.15-0.5,0.32-0.73,0.52c-0.23,0.19-0.45,0.4-0.65,0.62c-0.1,0.11-0.2,0.23-0.29,0.35c-0.1,0.12-0.19,0.24-0.27,0.36
					L492.88,453.1z"/>
				<path class="st9" d="M492.49,449.49c-0.04-0.39,0.06-0.73,0.2-1.03c0.15-0.3,0.36-0.57,0.62-0.79c0.26-0.22,0.57-0.38,0.91-0.48
					c0.34-0.09,0.72-0.09,1.07,0.06l0.02,0.07c-0.14,0.05-0.29,0.09-0.42,0.15c-0.07,0.03-0.14,0.05-0.2,0.09l-0.2,0.1
					c-0.26,0.15-0.5,0.32-0.73,0.52c-0.23,0.19-0.45,0.4-0.65,0.62c-0.1,0.11-0.2,0.23-0.29,0.35c-0.1,0.12-0.19,0.24-0.27,0.36
					L492.49,449.49z"/>
			</g>
		</g>
		<path class="st3" d="M431.86,328.01"/>
		<g>
			<path class="st8" d="M397.97,363.15l29.82-0.92c2.26-0.18,4.38-1.17,5.98-2.78c0.93-0.94,1.65-2.07,2.12-3.31l5.13-17.44
				c1.09-3.7-0.99-7.6-4.67-8.75l0,0c-3.96-1.24-8.13,1.17-9.03,5.22l-3.21,14.47l-26.45,7.43l-5.13-2.5
				c-0.67-0.33-1.47-0.11-1.88,0.51l0,0c-0.42,0.63-0.3,1.49,0.29,1.97l1.69,1.38l-4.8,0.87h-7.4l0,0c0.15,1.17,0.93,2.16,2.02,2.59
				l1.65,0.65c1.71,0.67,3.53,1.06,5.37,1.15L397.97,363.15z"/>
			<path class="st0" d="M382.45,361.89c0.43-0.03,0.86-0.03,1.28-0.03c0.43,0,0.85,0,1.28,0.01c0.43,0.01,0.85,0.03,1.28,0.05
				c0.43,0.03,0.85,0.04,1.28,0.07l-0.05,0c0.37-0.06,0.73-0.12,1.1-0.17c0.37-0.05,0.74-0.1,1.11-0.15
				c0.37-0.05,0.74-0.09,1.11-0.12c0.37-0.03,0.74-0.07,1.12-0.08c-0.36,0.11-0.72,0.2-1.08,0.29c-0.36,0.09-0.73,0.17-1.09,0.25
				c-0.36,0.08-0.73,0.15-1.09,0.22c-0.36,0.07-0.73,0.13-1.1,0.2l-0.02,0l-0.03,0c-0.43-0.02-0.85-0.06-1.28-0.09
				c-0.43-0.03-0.85-0.07-1.28-0.11c-0.42-0.04-0.85-0.09-1.27-0.15C383.3,362.03,382.87,361.97,382.45,361.89z"/>
			<path class="st0" d="M424.1,349.61c0.21-0.16,0.46-0.21,0.7-0.25c0.25-0.02,0.5-0.03,0.74,0.01c0.06,0.01,0.12,0.01,0.18,0.02
				l0.18,0.04c0.12,0.03,0.24,0.05,0.35,0.09c0.23,0.07,0.45,0.16,0.67,0.26c0.21,0.11,0.42,0.22,0.63,0.34
				c0.19,0.14,0.4,0.25,0.58,0.41c0.18,0.15,0.36,0.3,0.53,0.47c0.16,0.17,0.32,0.35,0.46,0.54l-0.03,0.04l-0.57-0.39
				c-0.19-0.13-0.39-0.24-0.58-0.36c-0.2-0.12-0.4-0.22-0.6-0.34c-0.2-0.1-0.41-0.21-0.62-0.3c-0.41-0.19-0.84-0.36-1.28-0.47
				c-0.44-0.1-0.91-0.18-1.34-0.06L424.1,349.61z"/>
		</g>
		<path class="st0" d="M419.59,344.3l-0.38,3.45l-0.35,3.44l-0.02,0.17l-0.16,0.04c-0.77,0.21-1.54,0.42-2.31,0.62
			c-0.77,0.2-1.54,0.41-2.31,0.6c-1.54,0.4-3.09,0.78-4.65,1.13c1.51-0.5,3.03-0.98,4.56-1.45c0.76-0.24,1.53-0.46,2.29-0.69
			c0.76-0.23,1.53-0.45,2.29-0.68l-0.18,0.22c0.03-0.58,0.07-1.16,0.13-1.74c0.06-0.58,0.14-1.16,0.23-1.73
			c0.05-0.29,0.1-0.57,0.16-0.86c0.06-0.29,0.12-0.57,0.19-0.85C419.23,345.41,419.38,344.85,419.59,344.3z"/>
		<path class="st0" d="M454.01,398.82c0,0-3.45,12.8-10.43,18.98C443.57,417.8,453.35,413.09,454.01,398.82z"/>
	</g>
	<g>
		<g>
			<path class="st6" d="M521.9,297.73h-63.75v-71.94h63.75V297.73z M458.55,297.33h62.94v-71.14h-62.94V297.33z"/>
			<g>
				<defs>
					<rect id="XMLID_68_" x="463.26" y="230.9" width="53.53" height="61.72"/>
				</defs>
				<use xlink:href="#XMLID_68_"  style="overflow:visible;fill:#E8E9EC;"/>
				<clipPath id="XMLID_00000130622576484277586780000014102881153657173384_">
					<use xlink:href="#XMLID_68_"  style="overflow:visible;"/>
				</clipPath>
				
					<polyline style="opacity:0.45;clip-path:url(#XMLID_00000130622576484277586780000014102881153657173384_);fill:#FFFFFF;" points="
					483.81,230.9 463.26,260.18 463.26,278.65 476.71,262.78 463.26,284.57 463.26,292.62 487.37,292.62 509.62,263.97 494,292.62 
					506.31,292.62 516.79,275.1 516.79,230.9 508.44,230.9 485.71,261.76 503.7,230.9 483.81,230.9 				"/>
			</g>
		</g>
		<g>
			<path class="st6" d="M521.9,335.88h-29.12v-32.83h29.12V335.88z M493.18,335.48h28.31v-32.03h-28.31V335.48z"/>
			<g>
				<defs>
					<rect id="XMLID_67_" x="495.2" y="305.48" width="24.27" height="27.98"/>
				</defs>
				<use xlink:href="#XMLID_67_"  style="overflow:visible;fill:#E8E9EC;"/>
				<clipPath id="XMLID_00000177451751563244290290000005005932499899637687_">
					<use xlink:href="#XMLID_67_"  style="overflow:visible;"/>
				</clipPath>
				
					<polyline style="opacity:0.45;clip-path:url(#XMLID_00000177451751563244290290000005005932499899637687_);fill:#FFFFFF;" points="
					504.52,305.48 495.2,318.75 495.2,327.12 501.3,319.93 495.2,329.81 495.2,333.46 506.13,333.46 516.22,320.47 509.14,333.46 
					514.72,333.46 519.47,325.51 519.47,305.48 515.69,305.48 505.38,319.47 513.54,305.48 504.52,305.48 				"/>
			</g>
		</g>
		<g>
			<path class="st6" d="M487.26,335.88h-29.12v-32.83h29.12V335.88z M458.55,335.48h28.31v-32.03h-28.31V335.48z"/>
			<g>
				<defs>
					<rect id="XMLID_66_" x="460.57" y="305.48" width="24.27" height="27.98"/>
				</defs>
				<use xlink:href="#XMLID_66_"  style="overflow:visible;fill:#E8E9EC;"/>
				<clipPath id="XMLID_00000019662613157993056170000008542223859428278178_">
					<use xlink:href="#XMLID_66_"  style="overflow:visible;"/>
				</clipPath>
				
					<polyline style="opacity:0.45;clip-path:url(#XMLID_00000019662613157993056170000008542223859428278178_);fill:#FFFFFF;" points="
					469.89,305.48 460.57,318.75 460.57,327.12 466.67,319.93 460.57,329.81 460.57,333.46 471.5,333.46 481.59,320.47 
					474.51,333.46 480.09,333.46 484.84,325.51 484.84,305.48 481.06,305.48 470.75,319.47 478.91,305.48 469.89,305.48 				"/>
			</g>
		</g>
	</g>
	<g>
		<g>
			<defs>
				<path id="XMLID_65_" d="M519.68,394.64h-37.55c-0.57,0-1.03-0.46-1.03-1.03v-7.19c0-0.57,0.46-1.03,1.03-1.03h37.55
					c0.57,0,1.03,0.46,1.03,1.03v7.19C520.71,394.18,520.25,394.64,519.68,394.64z"/>
			</defs>
			<use xlink:href="#XMLID_65_"  style="overflow:visible;fill:#C9CDD8;"/>
			<clipPath id="XMLID_00000085233464446994062680000016212121352660025995_">
				<use xlink:href="#XMLID_65_"  style="overflow:visible;"/>
			</clipPath>
			
				<rect x="484.77" y="384.47" style="clip-path:url(#XMLID_00000085233464446994062680000016212121352660025995_);fill:#E8E9EC;" width="2" height="10.91"/>
			
				<rect x="488.49" y="384.47" style="clip-path:url(#XMLID_00000085233464446994062680000016212121352660025995_);fill:#E8E9EC;" width="2" height="10.91"/>
			
				<rect x="510.89" y="385.4" style="clip-path:url(#XMLID_00000085233464446994062680000016212121352660025995_);fill:#E8E9EC;" width="2" height="10.91"/>
			
				<rect x="514.62" y="385.4" style="clip-path:url(#XMLID_00000085233464446994062680000016212121352660025995_);fill:#E8E9EC;" width="2" height="10.91"/>
		</g>
		<g>
			<defs>
				<path id="XMLID_64_" d="M518.35,368.92h-37.55c-0.57,0-1.03-0.46-1.03-1.03v-7.19c0-0.57,0.46-1.03,1.03-1.03h37.55
					c0.57,0,1.03,0.46,1.03,1.03v7.19C519.38,368.46,518.92,368.92,518.35,368.92z"/>
			</defs>
			<use xlink:href="#XMLID_64_"  style="overflow:visible;fill:#E8E9EC;"/>
			<clipPath id="XMLID_00000120541555975514668710000012874374053376868510_">
				<use xlink:href="#XMLID_64_"  style="overflow:visible;"/>
			</clipPath>
			
				<rect x="478.32" y="362.92" style="clip-path:url(#XMLID_00000120541555975514668710000012874374053376868510_);fill:#C9CDD8;" width="41.69" height="2.76"/>
		</g>
		<g>
			<defs>
				<path id="XMLID_63_" d="M512.17,376.16h-29.44c-0.44,0-0.8-0.36-0.8-0.8v-5.64c0-0.44,0.36-0.8,0.8-0.8h29.44
					c0.44,0,0.8,0.36,0.8,0.8v5.64C512.97,375.8,512.61,376.16,512.17,376.16z"/>
			</defs>
			<use xlink:href="#XMLID_63_"  style="overflow:visible;fill:#C9CDD8;"/>
			<clipPath id="XMLID_00000053512467403671225990000002639154313674364830_">
				<use xlink:href="#XMLID_63_"  style="overflow:visible;"/>
			</clipPath>
			
				<circle style="clip-path:url(#XMLID_00000053512467403671225990000002639154313674364830_);fill:#E8E9EC;" cx="497.45" cy="372.54" r="2.42"/>
			<g style="clip-path:url(#XMLID_00000053512467403671225990000002639154313674364830_);">
				<path class="st7" d="M483.98,367.53c0.3,0.81,0.54,1.63,0.77,2.45c0.23,0.82,0.43,1.66,0.62,2.49l0.26,1.25
					c0.08,0.42,0.17,0.84,0.23,1.26c0.15,0.84,0.27,1.69,0.34,2.55c-0.3-0.81-0.54-1.63-0.77-2.45c-0.12-0.41-0.22-0.83-0.32-1.24
					l-0.29-1.25c-0.18-0.84-0.35-1.67-0.5-2.52C484.18,369.24,484.06,368.39,483.98,367.53z"/>
				<path class="st7" d="M486.54,367.99c0.3,0.81,0.54,1.63,0.77,2.45c0.23,0.82,0.43,1.66,0.62,2.49l0.26,1.25
					c0.08,0.42,0.17,0.84,0.23,1.26c0.15,0.84,0.27,1.69,0.34,2.55c-0.3-0.81-0.54-1.63-0.77-2.45c-0.12-0.41-0.22-0.83-0.32-1.24
					l-0.29-1.25c-0.18-0.84-0.35-1.67-0.5-2.52C486.74,369.7,486.62,368.85,486.54,367.99z"/>
			</g>
			<g style="clip-path:url(#XMLID_00000053512467403671225990000002639154313674364830_);">
				<path class="st7" d="M505.88,367.31c0.3,0.81,0.54,1.63,0.77,2.45c0.23,0.82,0.43,1.66,0.62,2.49l0.26,1.25
					c0.08,0.42,0.17,0.84,0.23,1.26c0.15,0.84,0.27,1.69,0.34,2.55c-0.3-0.81-0.54-1.63-0.77-2.45c-0.12-0.41-0.22-0.83-0.32-1.24
					l-0.29-1.25c-0.18-0.84-0.35-1.67-0.5-2.52C506.08,369.01,505.95,368.16,505.88,367.31z"/>
				<path class="st7" d="M508.44,367.76c0.3,0.81,0.54,1.63,0.77,2.45c0.23,0.82,0.43,1.66,0.62,2.49l0.26,1.25
					c0.08,0.42,0.17,0.84,0.23,1.26c0.15,0.84,0.27,1.69,0.34,2.55c-0.3-0.81-0.54-1.63-0.77-2.45c-0.12-0.41-0.22-0.83-0.32-1.24
					l-0.29-1.25c-0.18-0.84-0.35-1.67-0.5-2.52C508.64,369.47,508.51,368.62,508.44,367.76z"/>
			</g>
		</g>
		<g>
			<defs>
				<path id="XMLID_54_" d="M523.34,385.4h-37.55c-0.57,0-1.03-0.46-1.03-1.03v-7.19c0-0.57,0.46-1.03,1.03-1.03h37.55
					c0.57,0,1.03,0.46,1.03,1.03v7.19C524.37,384.94,523.91,385.4,523.34,385.4z"/>
			</defs>
			<use xlink:href="#XMLID_54_"  style="overflow:visible;fill:#E8E9EC;"/>
			<clipPath id="XMLID_00000117660963010535848380000008342931488784647094_">
				<use xlink:href="#XMLID_54_"  style="overflow:visible;"/>
			</clipPath>
			
				<ellipse transform="matrix(0.1602 -0.9871 0.9871 0.1602 43.5151 803.2087)" style="clip-path:url(#XMLID_00000117660963010535848380000008342931488784647094_);fill:#FFFFFF;" cx="493.79" cy="376.03" rx="4.56" ry="4.56"/>
			
				<ellipse transform="matrix(0.2298 -0.9732 0.9732 0.2298 -1.9352 765.5657)" style="clip-path:url(#XMLID_00000117660963010535848380000008342931488784647094_);fill:#C9CDD8;" cx="482.7" cy="384.01" rx="4.56" ry="4.56"/>
			
				<ellipse transform="matrix(0.2298 -0.9732 0.9732 0.2298 22.5575 797.9108)" style="clip-path:url(#XMLID_00000117660963010535848380000008342931488784647094_);fill:#FFFFFF;" cx="515.38" cy="384.7" rx="2.98" ry="2.98"/>
			
				<circle style="clip-path:url(#XMLID_00000117660963010535848380000008342931488784647094_);fill:#C9CDD8;" cx="504.57" cy="380.78" r="1.1"/>
			
				<ellipse transform="matrix(0.2298 -0.9732 0.9732 0.2298 32.9152 799.1796)" style="clip-path:url(#XMLID_00000117660963010535848380000008342931488784647094_);fill:#C9CDD8;" cx="521.36" cy="378.79" rx="1.98" ry="1.98"/>
		</g>
		<g>
			<defs>
				<path id="XMLID_40_" d="M520.5,359.76h-37.55c-0.57,0-1.03-0.46-1.03-1.03v-7.19c0-0.57,0.46-1.03,1.03-1.03h37.55
					c0.57,0,1.03,0.46,1.03,1.03v7.19C521.52,359.3,521.07,359.76,520.5,359.76z"/>
			</defs>
			<use xlink:href="#XMLID_40_"  style="overflow:visible;fill:#E8E9EC;"/>
			<clipPath id="XMLID_00000088850222708830294910000006930209395994358970_">
				<use xlink:href="#XMLID_40_"  style="overflow:visible;"/>
			</clipPath>
			<polygon style="clip-path:url(#XMLID_00000088850222708830294910000006930209395994358970_);fill:#C9CDD8;" points="
				485.93,361.74 484.73,360.11 485.84,358.59 484.73,357.07 485.84,355.55 484.73,354.04 485.84,352.52 484.73,351 485.93,349.37 
				486.25,349.6 485.22,351 486.34,352.52 485.22,354.04 486.34,355.55 485.22,357.07 486.34,358.59 485.22,360.11 486.25,361.51 
							"/>
			<polygon style="clip-path:url(#XMLID_00000088850222708830294910000006930209395994358970_);fill:#C9CDD8;" points="
				488.46,361.82 487.26,360.18 488.37,358.66 487.26,357.15 488.37,355.63 487.26,354.11 488.37,352.59 487.26,351.08 
				488.46,349.44 488.78,349.68 487.75,351.08 488.87,352.59 487.75,354.11 488.87,355.63 487.75,357.15 488.87,358.66 
				487.75,360.18 488.78,361.58 			"/>
			<polygon style="clip-path:url(#XMLID_00000088850222708830294910000006930209395994358970_);fill:#C9CDD8;" points="
				515.99,362.34 514.79,360.7 515.9,359.18 514.79,357.67 515.9,356.15 514.79,354.63 515.9,353.11 514.79,351.6 515.99,349.96 
				516.31,350.2 515.28,351.6 516.4,353.11 515.28,354.63 516.4,356.15 515.28,357.67 516.4,359.18 515.28,360.7 516.31,362.1 			
				"/>
			<polygon style="clip-path:url(#XMLID_00000088850222708830294910000006930209395994358970_);fill:#C9CDD8;" points="
				518.52,362.41 517.32,360.78 518.43,359.26 517.32,357.74 518.43,356.22 517.32,354.71 518.43,353.19 517.32,351.67 
				518.52,350.04 518.84,350.27 517.81,351.67 518.93,353.19 517.81,354.71 518.93,356.22 517.81,357.74 518.93,359.26 
				517.81,360.78 518.84,362.18 			"/>
		</g>
		<path class="st2" d="M482.95,359.76c1.52-0.03,3.04-0.04,4.55-0.06l4.55-0.03c1.52-0.01,3.04-0.01,4.55-0.02l4.55-0.01l4.55,0.01
			c1.52,0.01,3.04,0,4.55,0.02l4.55,0.03c1.52,0.02,3.04,0.03,4.55,0.06c-1.52,0.03-3.04,0.04-4.55,0.06l-4.55,0.03
			c-1.52,0.01-3.04,0.01-4.55,0.02l-4.55,0.01l-4.55-0.01c-1.52-0.01-3.04,0-4.55-0.02l-4.55-0.03
			C485.99,359.8,484.47,359.79,482.95,359.76z"/>
		<path class="st2" d="M482.73,368.92c1.23-0.03,2.45-0.04,3.68-0.06l3.68-0.03c1.23-0.01,2.45-0.01,3.68-0.02l3.68-0.01l3.68,0.01
			c1.23,0.01,2.45,0,3.68,0.02l3.68,0.03c1.23,0.02,2.45,0.03,3.68,0.06c-1.23,0.03-2.45,0.04-3.68,0.06l-3.68,0.03
			c-1.23,0.01-2.45,0.01-3.68,0.02l-3.68,0.01l-3.68-0.01c-1.23-0.01-2.45,0-3.68-0.02l-3.68-0.03
			C485.18,368.95,483.96,368.94,482.73,368.92z"/>
		<path class="st2" d="M485.79,376.16c1.1-0.03,2.2-0.04,3.3-0.06l3.3-0.03c1.1-0.01,2.2-0.01,3.3-0.02l3.3-0.01l3.3,0.01
			c1.1,0.01,2.2,0,3.3,0.02l3.3,0.03c1.1,0.02,2.2,0.03,3.3,0.06c-1.1,0.03-2.2,0.04-3.3,0.06l-3.3,0.03
			c-1.1,0.01-2.2,0.01-3.3,0.02l-3.3,0.01l-3.3-0.01c-1.1-0.01-2.2,0-3.3-0.02l-3.3-0.03C487.99,376.2,486.89,376.19,485.79,376.16z
			"/>
		<path class="st2" d="M485.79,385.4c1.41-0.03,2.82-0.04,4.24-0.06l4.24-0.03c1.41-0.01,2.82-0.01,4.24-0.02l4.24-0.01l4.24,0.01
			c1.41,0.01,2.82,0,4.24,0.02l4.24,0.03c1.41,0.02,2.82,0.03,4.24,0.06c-1.41,0.03-2.82,0.04-4.24,0.06l-4.24,0.03
			c-1.41,0.01-2.82,0.01-4.24,0.02l-4.24,0.01l-4.24-0.01c-1.41-0.01-2.82,0-4.24-0.02l-4.24-0.03
			C488.62,385.44,487.21,385.43,485.79,385.4z"/>
	</g>
	<g>
		<g>
			<defs>
				<path id="XMLID_39_" d="M111.28,431.93L111.28,431.93l-13.47,0H84.34l0.04,0.11c3.47,8.95,4.42,18.93,2.7,28.53l-4.34,24.28
					c-1.19,6.67,3.25,12.91,9.19,12.91h5.87h5.89c5.93,0,10.38-6.23,9.2-12.89l-4.34-24.51
					C106.87,450.79,107.82,440.85,111.28,431.93z"/>
			</defs>
			<use xlink:href="#XMLID_39_"  style="overflow:visible;fill:#4B8375;"/>
			<clipPath id="XMLID_00000156577519685722234100000001353717553550332297_">
				<use xlink:href="#XMLID_39_"  style="overflow:visible;"/>
			</clipPath>
			
				<rect x="80.76" y="481.1" style="clip-path:url(#XMLID_00000156577519685722234100000001353717553550332297_);fill:#366054;" width="35.15" height="5.58"/>
			
				<rect x="80.25" y="470.41" style="clip-path:url(#XMLID_00000156577519685722234100000001353717553550332297_);fill:#366054;" width="35.15" height="5.58"/>
		</g>
		<g>
			<path class="st0" d="M94.7,432.28c-0.17,0-0.33-0.13-0.35-0.31c-0.06-0.45-6.33-45.27-22.08-81.24c-0.08-0.18,0-0.39,0.18-0.47
				c0.18-0.08,0.39,0,0.47,0.18c15.79,36.06,22.07,80.98,22.13,81.43c0.03,0.19-0.11,0.37-0.3,0.4
				C94.73,432.28,94.72,432.28,94.7,432.28z"/>
			<path class="st0" d="M87.71,396.73c0,0-5.17-9.09-20.83-9.32C66.88,387.41,75,401.68,87.71,396.73z"/>
			<path class="st0" d="M89.81,406.65c0,0-1.66-10.68,9.63-23.13C99.45,383.52,102.04,400.31,89.81,406.65z"/>
			<path class="st0" d="M94.33,429.41c0,0-1.66-10.68,9.63-23.13C103.97,406.29,106.56,423.07,94.33,429.41z"/>
			<path class="st0" d="M72.59,412.43c0,0,9.19-2.61,20.78,9.46C93.38,421.89,78.94,425.98,72.59,412.43z"/>
			<path class="st0" d="M83.7,381.43c0,0-1.36-8.76,7.9-18.96C91.6,362.47,93.72,376.23,83.7,381.43z"/>
			<path class="st0" d="M67.74,366.09c0,0,5.92-1.38,13.02,6.66C80.76,372.75,71.46,374.92,67.74,366.09z"/>
			<path class="st0" d="M77.35,361.77c0,0-0.91-5.08,4.36-11.19C81.71,350.59,83.13,358.57,77.35,361.77z"/>
			<path class="st21" d="M71.79,347.53c0,0,3.12-2.46-0.83-9.79c-3.95-7.34-5.1,7.23-2.52,8.94
				C71.02,348.38,71.79,347.53,71.79,347.53z"/>
			<path class="st4" d="M73.31,352.25c0,0-4.67,1.9-8.41-8.54c-3.74-10.44,10.61-0.62,10.2,3.82
				C74.69,351.97,73.31,352.25,73.31,352.25z"/>
		</g>
	</g>
	<path class="st0" d="M548.6,498.78H51.82c-0.27,0-0.48-0.21-0.48-0.48c0-0.27,0.21-0.48,0.48-0.48H548.6
		c0.27,0,0.48,0.21,0.48,0.48C549.08,498.57,548.86,498.78,548.6,498.78z"/>
</g>
<g>
	<g>
		<path class="st4" d="M185.37,119.25c-1.48,0-2.62-0.41-3.42-1.23c-0.8-0.82-1.2-1.99-1.2-3.51V80.73c0-1.56,0.4-2.74,1.2-3.54
			c0.8-0.8,1.94-1.2,3.42-1.2c1.52,0,2.68,0.4,3.48,1.2c0.8,0.8,1.2,1.98,1.2,3.54v12.78h19.62V80.73c0-1.56,0.41-2.74,1.23-3.54
			c0.82-0.8,1.99-1.2,3.51-1.2c1.48,0,2.62,0.4,3.42,1.2c0.8,0.8,1.2,1.98,1.2,3.54v33.78c0,1.52-0.4,2.69-1.2,3.51
			c-0.8,0.82-1.94,1.23-3.42,1.23c-1.52,0-2.69-0.41-3.51-1.23c-0.82-0.82-1.23-1.99-1.23-3.51v-13.32h-19.62v13.32
			c0,1.52-0.39,2.69-1.17,3.51S186.93,119.25,185.37,119.25z"/>
		<path class="st4" d="M242.07,119.37c-3.48,0-6.47-0.62-8.97-1.86c-2.5-1.24-4.42-3.01-5.76-5.31c-1.34-2.3-2.01-5.03-2.01-8.19
			c0-3.04,0.65-5.69,1.95-7.95c1.3-2.26,3.09-4.05,5.37-5.37c2.28-1.32,4.86-1.98,7.74-1.98c2.2,0,4.15,0.35,5.85,1.05
			c1.7,0.7,3.17,1.7,4.41,3c1.24,1.3,2.18,2.88,2.82,4.74c0.64,1.86,0.96,3.93,0.96,6.21c0,0.76-0.24,1.33-0.72,1.71
			c-0.48,0.38-1.18,0.57-2.1,0.57h-18.78v-4.68h15.06l-0.96,0.84c0-1.64-0.24-3.01-0.72-4.11c-0.48-1.1-1.17-1.94-2.07-2.52
			c-0.9-0.58-2.01-0.87-3.33-0.87c-1.48,0-2.74,0.34-3.78,1.02c-1.04,0.68-1.84,1.67-2.4,2.97c-0.56,1.3-0.84,2.85-0.84,4.65v0.48
			c0,3.04,0.7,5.28,2.1,6.72c1.4,1.44,3.52,2.16,6.36,2.16c0.96,0,2.05-0.12,3.27-0.36c1.22-0.24,2.39-0.62,3.51-1.14
			c0.96-0.44,1.78-0.58,2.46-0.42c0.68,0.16,1.23,0.49,1.65,0.99c0.42,0.5,0.65,1.09,0.69,1.77c0.04,0.68-0.11,1.35-0.45,2.01
			s-0.91,1.21-1.71,1.65c-1.4,0.8-2.96,1.37-4.68,1.71C245.27,119.2,243.63,119.37,242.07,119.37z"/>
		<path class="st4" d="M267.75,130.05c-1.08,0-1.94-0.27-2.58-0.81c-0.64-0.54-1.04-1.26-1.2-2.16c-0.16-0.9,0-1.85,0.48-2.85
			l4.02-8.82v3.66l-10.62-24.36c-0.4-1.04-0.52-2.01-0.36-2.91c0.16-0.9,0.6-1.62,1.32-2.16s1.74-0.81,3.06-0.81
			c1.12,0,2.01,0.24,2.67,0.72c0.66,0.48,1.23,1.46,1.71,2.94l7.14,17.88h-1.86l7.26-18c0.56-1.36,1.19-2.29,1.89-2.79
			c0.7-0.5,1.65-0.75,2.85-0.75c1.04,0,1.87,0.27,2.49,0.81c0.62,0.54,1,1.25,1.14,2.13c0.14,0.88-0.03,1.84-0.51,2.88l-14.1,31.98
			c-0.6,1.36-1.27,2.27-2.01,2.73C269.8,129.82,268.87,130.05,267.75,130.05z"/>
		<path class="st4" d="M323.85,119.25c-1.48,0-2.62-0.41-3.42-1.23c-0.8-0.82-1.2-2.01-1.2-3.57V97.11l1.92,5.34l-14.1-20.16
			c-0.64-0.84-0.92-1.75-0.84-2.73c0.08-0.98,0.49-1.82,1.23-2.52c0.74-0.7,1.77-1.05,3.09-1.05c0.96,0,1.83,0.23,2.61,0.69
			c0.78,0.46,1.53,1.21,2.25,2.25l9.6,13.86h-1.98l9.66-13.86c0.76-1.04,1.51-1.79,2.25-2.25c0.74-0.46,1.61-0.69,2.61-0.69
			c1.28,0,2.28,0.32,3,0.96c0.72,0.64,1.1,1.45,1.14,2.43c0.04,0.98-0.28,1.99-0.96,3.03l-14.04,20.04l1.86-5.34v17.34
			C328.53,117.65,326.97,119.25,323.85,119.25z"/>
		<path class="st4" d="M360.45,119.37c-3.16,0-5.9-0.62-8.22-1.86c-2.32-1.24-4.13-3.01-5.43-5.31c-1.3-2.3-1.95-5.03-1.95-8.19
			c0-2.36,0.36-4.48,1.08-6.36c0.72-1.88,1.77-3.49,3.15-4.83c1.38-1.34,3.04-2.36,4.98-3.06c1.94-0.7,4.07-1.05,6.39-1.05
			c3.16,0,5.91,0.62,8.25,1.86c2.34,1.24,4.16,3.01,5.46,5.31c1.3,2.3,1.95,5.01,1.95,8.13c0,2.36-0.37,4.5-1.11,6.42
			c-0.74,1.92-1.79,3.54-3.15,4.86c-1.36,1.32-3,2.33-4.92,3.03C365.01,119.02,362.85,119.37,360.45,119.37z M360.45,112.65
			c1.32,0,2.46-0.31,3.42-0.93c0.96-0.62,1.72-1.57,2.28-2.85c0.56-1.28,0.84-2.9,0.84-4.86c0-2.92-0.6-5.07-1.8-6.45
			s-2.78-2.07-4.74-2.07c-1.28,0-2.41,0.3-3.39,0.9c-0.98,0.6-1.74,1.54-2.28,2.82c-0.54,1.28-0.81,2.88-0.81,4.8
			c0,2.96,0.6,5.14,1.8,6.54C356.97,111.95,358.53,112.65,360.45,112.65z"/>
		<path class="st4" d="M392.49,119.37c-2.48,0-4.54-0.46-6.18-1.38c-1.64-0.92-2.85-2.29-3.63-4.11c-0.78-1.82-1.17-4.11-1.17-6.87
			V93.39c0-1.52,0.39-2.66,1.17-3.42c0.78-0.76,1.89-1.14,3.33-1.14c1.44,0,2.56,0.38,3.36,1.14c0.8,0.76,1.2,1.9,1.2,3.42v13.8
			c0,1.72,0.36,3.02,1.08,3.9c0.72,0.88,1.84,1.32,3.36,1.32c1.76,0,3.19-0.61,4.29-1.83c1.1-1.22,1.65-2.83,1.65-4.83V93.39
			c0-1.52,0.4-2.66,1.2-3.42c0.8-0.76,1.9-1.14,3.3-1.14c1.48,0,2.61,0.38,3.39,1.14c0.78,0.76,1.17,1.9,1.17,3.42v21.3
			c0,3.04-1.46,4.56-4.38,4.56c-1.4,0-2.5-0.39-3.3-1.17c-0.8-0.78-1.2-1.91-1.2-3.39v-4.08l0.96,2.4
			c-0.88,2.08-2.14,3.66-3.78,4.74C396.67,118.83,394.73,119.37,392.49,119.37z"/>
		<path class="st4" d="M421.41,119.07c-1.6,0-2.87-0.47-3.81-1.41c-0.94-0.94-1.41-2.19-1.41-3.75c0-1.48,0.47-2.69,1.41-3.63
			c0.94-0.94,2.21-1.41,3.81-1.41c1.6,0,2.85,0.47,3.75,1.41c0.9,0.94,1.35,2.15,1.35,3.63c0,1.56-0.45,2.81-1.35,3.75
			C424.26,118.6,423.01,119.07,421.41,119.07z M421.41,105.75c-0.92,0-1.64-0.28-2.16-0.84c-0.52-0.56-0.84-1.36-0.96-2.4
			l-1.98-20.64c-0.2-1.76,0.16-3.18,1.08-4.26c0.92-1.08,2.26-1.62,4.02-1.62c1.76,0,3.07,0.54,3.93,1.62
			c0.86,1.08,1.19,2.5,0.99,4.26l-1.92,20.64c-0.12,1.04-0.44,1.84-0.96,2.4C422.93,105.47,422.25,105.75,421.41,105.75z"/>
	</g>
</g>
</svg>
